<svg xmlns="http://www.w3.org/2000/svg" viewBox="0 0 100 74">
	<path d="M62.62 73c.74-1.1 1.5-2.19 2.23-3.29C68 65 65.37 57.78 59.9 56.55c-1.06-.24-2.9.81-3.62 1.81a6.52 6.52 0 0 0-.85 4.26c.14 1.12 1.36 2.06 1.91 3.18 1.78 3.56.29 6.39-3.66 6.85a18.17 18.17 0 0 1-5.79.07c-2-.42-4.7-1.12-5.39-2.53s.25-4.14 1.19-5.89c1.8-3.33 1.57-5.72-1.48-7.41A3.29 3.29 0 0 0 40 56.5a8.89 8.89 0 0 0-4.8 13.29c.7 1 1.44 2 2.77 3.89-2.27-.26-3.88-.07-5.14-.66C22.5 68.22 12.21 63.37 2 58.31c-2.74-1.36-2.66-3.47 0-4.82 10.29-5.14 20.65-10.14 31-15.1 3-1.45 5.7-.06 8.37 1.46 1.13.64 3.33 1.28 3.83.76a5.71 5.71 0 0 0 1.27-4.24c-.82-5.76-4.47-7.67-9.9-5.26C28 34.93 19.47 39 10.82 42.77a54.09 54.09 0 0 1-6.53 1.94l-.81-1.14C5 41.32 6.53 39 8.16 36.82c5.95-8.06 6.55-5.33 2.82-16.41A48.13 48.13 0 0 1 8.91 7.69 6.93 6.93 0 0 1 13.17.48c3-1.2 5.54.3 7.83 2.12a12.5 12.5 0 0 1 3 2.8c2.57 4 6.16 4.89 10.76 4.76 11.29-.31 22.59 0 33.88-.2a9.25 9.25 0 0 0 4.94-2.13C76 6 77.89 3.39 80.38 1.64 85-1.56 89.05 0 90.67 5.35c1.48 4.85.23 9.53-1.26 14.08-3.93 12-4.64 8 3.42 18.71 1.3 1.74 2.4 3.63 3.6 5.45l-.7 1a31 31 0 0 1-5-1.27C83 40 75.17 36.44 67.38 33c-1.67-.75-3.3-1.56-5-2.18-5.37-2-9.92 1.92-9 7.62.43 2.69 2.14 3.67 4.32 2 4.5-3.45 8.65-2.69 13.31-.25 8.47 4.44 17.18 8.43 25.72 12.74 1.29.65 2.21 2 3.3 3.08-1 1-1.86 2.36-3.07 3-8.53 4.32-17.1 8.59-25.75 12.66-2.49 1.17-5.31 1.62-8 2.4l-.58-1m-28-30.54c-.73 1-2.47 2.41-2.71 4-.36 2.44 1.44 4.09 4 4.06a3.69 3.69 0 0 0 3.92-3.88c0-2.53-1.5-3.92-5.19-4.2m33.48 2.85c-.93-.66-2.3-2.32-3.91-2.59-2.48-.41-4 1.39-4 3.93a3.67 3.67 0 0 0 3.85 3.91c2.42 0 4-1.42 4.07-5.25" fill="#4a90e2" fill-rule="evenodd" />
</svg>
